<svg viewBox="0 0 20 20" fill="none" xmlns="http://www.w3.org/2000/svg">
<path d="M9.99935 15.1667C11.8403 15.1667 13.3327 13.6743 13.3327 11.8333C13.3327 9.99238 11.8403 8.5 9.99935 8.5C8.1584 8.5 6.66602 9.99238 6.66602 11.8333C6.66602 13.6743 8.1584 15.1667 9.99935 15.1667Z" stroke="#F28414" stroke-width="1.5" stroke-miterlimit="10" stroke-linecap="round" stroke-linejoin="round"/>
<path d="M10.2077 10.791V11.566C10.2077 11.8577 10.0577 12.1327 9.79935 12.2827L9.16602 12.666" stroke="#F28414" stroke-width="1.5" stroke-miterlimit="10" stroke-linecap="round" stroke-linejoin="round"/>
<path d="M6.66734 18.3333H13.334C16.684 18.3333 17.284 16.9917 17.459 15.3583L18.084 8.69167C18.309 6.65833 17.7257 5 14.1673 5H5.834C2.27567 5 1.69234 6.65833 1.91734 8.69167L2.54234 15.3583C2.71734 16.9917 3.31734 18.3333 6.66734 18.3333Z" stroke="#F28414" stroke-width="1.5" stroke-miterlimit="10" stroke-linecap="round" stroke-linejoin="round"/>
<path d="M6.66602 4.99935V4.33268C6.66602 2.85768 6.66602 1.66602 9.33268 1.66602H10.666C13.3327 1.66602 13.3327 2.85768 13.3327 4.33268V4.99935" stroke="#F28414" stroke-width="1.5" stroke-miterlimit="10" stroke-linecap="round" stroke-linejoin="round"/>
<path d="M18.0418 9.16602C16.6001 10.216 15.0001 10.9493 13.3418 11.366" stroke="#F28414" stroke-width="1.5" stroke-miterlimit="10" stroke-linecap="round" stroke-linejoin="round"/>
<path d="M2.18359 9.39258C3.57526 10.3426 5.09193 11.0176 6.66693 11.4009" stroke="#F28414" stroke-width="1.5" stroke-miterlimit="10" stroke-linecap="round" stroke-linejoin="round"/>
</svg>
