<svg viewBox="0 0 20 20" fill="none" xmlns="http://www.w3.org/2000/svg">
<path d="M18.3327 9.99935C18.3327 5.39935 14.5993 1.66602 9.99935 1.66602C5.39935 1.66602 1.66602 5.39935 1.66602 9.99935C1.66602 14.5993 5.39935 18.3327 9.99935 18.3327" stroke="#F28414" stroke-width="1.5" stroke-linecap="round" stroke-linejoin="round"/>
<path d="M6.66667 2.5H7.5C5.875 7.36667 5.875 12.6333 7.5 17.5H6.66667" stroke="#F28414" stroke-width="1.5" stroke-linecap="round" stroke-linejoin="round"/>
<path d="M12.5 2.5C13.3083 4.93333 13.7167 7.46667 13.7167 10" stroke="#F28414" stroke-width="1.5" stroke-linecap="round" stroke-linejoin="round"/>
<path d="M2.5 13.3333V12.5C4.93333 13.3083 7.46667 13.7167 10 13.7167" stroke="#F28414" stroke-width="1.5" stroke-linecap="round" stroke-linejoin="round"/>
<path d="M2.5 7.5C7.36667 5.875 12.6333 5.875 17.5 7.5" stroke="#F28414" stroke-width="1.5" stroke-linecap="round" stroke-linejoin="round"/>
<path d="M16.0085 13.1162L13.0585 16.0662C12.9419 16.1829 12.8335 16.3995 12.8085 16.5579L12.6502 17.6828C12.5919 18.0912 12.8752 18.3745 13.2835 18.3162L14.4085 18.1579C14.5669 18.1329 14.7919 18.0245 14.9002 17.9079L17.8502 14.9579C18.3585 14.4495 18.6002 13.8579 17.8502 13.1079C17.1085 12.3662 16.5169 12.6079 16.0085 13.1162Z" stroke="#F28414" stroke-width="1.5" stroke-miterlimit="10" stroke-linecap="round" stroke-linejoin="round"/>
<path d="M15.584 13.541C15.834 14.441 16.534 15.141 17.434 15.391" stroke="#F28414" stroke-width="1.5" stroke-miterlimit="10" stroke-linecap="round" stroke-linejoin="round"/>
</svg>
