<svg viewBox="0 0 32 32" fill="none" xmlns="http://www.w3.org/2000/svg">
<path d="M13.4044 29.9242C12.6294 29.9242 11.8931 29.5367 11.3894 28.8521L9.83942 26.7854C9.83942 26.7983 9.77482 26.7596 9.74899 26.7596H9.27108C4.85358 26.7596 2.11523 25.5583 2.11523 19.6038V14.4371C2.11523 8.99918 5.43483 7.57834 8.22483 7.33293C8.53483 7.29418 8.8965 7.28125 9.27108 7.28125H17.5377C22.2136 7.28125 24.6936 9.76126 24.6936 14.4371V19.6038C24.6936 19.9783 24.6806 20.34 24.629 20.6888C24.3965 23.44 22.9757 26.7596 17.5377 26.7596H17.0211L15.4194 28.8521C14.9156 29.5367 14.1794 29.9242 13.4044 29.9242ZM9.27108 9.21875C8.974 9.21875 8.68982 9.23167 8.41857 9.2575C5.42191 9.51583 4.05273 11.1563 4.05273 14.4371V19.6038C4.05273 24.0342 5.42191 24.8221 9.27108 24.8221H9.78774C10.369 24.8221 11.0277 25.145 11.3894 25.61L12.9394 27.6896C13.2236 28.0771 13.5852 28.0771 13.8694 27.6896L15.4194 25.6229C15.794 25.1192 16.3882 24.8221 17.0211 24.8221H17.5377C20.8186 24.8221 22.459 23.44 22.7044 20.495C22.7432 20.185 22.7561 19.9008 22.7561 19.6038V14.4371C22.7561 10.8333 21.1415 9.21875 17.5377 9.21875H9.27108Z" fill="#A0A1A5"/>
<path d="M13.4049 18.8294C12.6816 18.8294 12.1133 18.2482 12.1133 17.5378C12.1133 16.8273 12.6945 16.2461 13.4049 16.2461C14.1154 16.2461 14.6966 16.8273 14.6966 17.5378C14.6966 18.2482 14.1283 18.8294 13.4049 18.8294Z" fill="#A0A1A5"/>
<path d="M17.5358 18.8294C16.8125 18.8294 16.2441 18.2482 16.2441 17.5378C16.2441 16.8273 16.8254 16.2461 17.5358 16.2461C18.2462 16.2461 18.8275 16.8273 18.8275 17.5378C18.8275 18.2482 18.2462 18.8294 17.5358 18.8294Z" fill="#A0A1A5"/>
<path d="M9.28385 18.8294C8.56052 18.8294 7.99219 18.2482 7.99219 17.5378C7.99219 16.8273 8.57344 16.2461 9.28385 16.2461C9.99427 16.2461 10.5755 16.8273 10.5755 17.5378C10.5755 18.2482 9.99427 18.8294 9.28385 18.8294Z" fill="#A0A1A5"/>
<path d="M23.672 21.54C23.4137 21.54 23.1554 21.4366 22.9745 21.2429C22.7679 21.0362 22.6775 20.7391 22.7162 20.455C22.755 20.1837 22.7679 19.8995 22.7679 19.6025V14.4358C22.7679 10.832 21.1533 9.21745 17.5496 9.21745H9.28286C8.98578 9.21745 8.70164 9.23036 8.43039 9.2562C8.14623 9.29495 7.84912 9.1916 7.64246 8.99785C7.43579 8.79118 7.31953 8.50705 7.34536 8.22288C7.57786 5.43288 9.01161 2.11328 14.4495 2.11328H22.7162C27.3921 2.11328 29.872 4.59329 29.872 9.26913V14.4358C29.872 19.8737 26.5525 21.2945 23.7625 21.54C23.7237 21.54 23.6979 21.54 23.672 21.54ZM9.43789 7.27995H17.5366C22.2125 7.27995 24.6925 9.75996 24.6925 14.4358V19.4345C26.8883 18.892 27.9216 17.2775 27.9216 14.4358V9.26913C27.9216 5.66538 26.307 4.05078 22.7033 4.05078H14.4366C11.595 4.05078 9.99331 5.08411 9.43789 7.27995Z" fill="#A0A1A5"/>
</svg>
