<svg viewBox="0 0 20 20" fill="none" xmlns="http://www.w3.org/2000/svg">
<path d="M14.166 17.5H5.83268C2.49935 17.5 1.66602 16.6667 1.66602 13.3333V6.66667C1.66602 3.33333 2.49935 2.5 5.83268 2.5H14.166C17.4993 2.5 18.3327 3.33333 18.3327 6.66667V13.3333C18.3327 16.6667 17.4993 17.5 14.166 17.5Z" stroke="#F28414" stroke-width="1.5" stroke-linecap="round" stroke-linejoin="round"/>
<path d="M11.666 6.66602H15.8327" stroke="#F28414" stroke-width="1.5" stroke-linecap="round" stroke-linejoin="round"/>
<path d="M12.5 10H15.8333" stroke="#F28414" stroke-width="1.5" stroke-linecap="round" stroke-linejoin="round"/>
<path d="M14.166 13.334H15.8327" stroke="#F28414" stroke-width="1.5" stroke-linecap="round" stroke-linejoin="round"/>
<path d="M7.08451 9.40729C7.91753 9.40729 8.59284 8.73199 8.59284 7.89896C8.59284 7.06593 7.91753 6.39062 7.08451 6.39062C6.25148 6.39062 5.57617 7.06593 5.57617 7.89896C5.57617 8.73199 6.25148 9.40729 7.08451 9.40729Z" stroke="#F28414" stroke-width="1.5" stroke-linecap="round" stroke-linejoin="round"/>
<path d="M9.99935 13.6085C9.88268 12.4001 8.92435 11.4501 7.71602 11.3418C7.29935 11.3001 6.87435 11.3001 6.44935 11.3418C5.24102 11.4585 4.28268 12.4001 4.16602 13.6085" stroke="#F28414" stroke-width="1.5" stroke-linecap="round" stroke-linejoin="round"/>
</svg>
