<svg viewBox="0 0 21 20" fill="none" xmlns="http://www.w3.org/2000/svg">
<path d="M17.5837 9.41601V5.86602C17.5837 2.50769 16.8003 1.66602 13.6503 1.66602H7.35033C4.20033 1.66602 3.41699 2.50769 3.41699 5.86602V15.2493C3.41699 17.466 4.63367 17.991 6.10867 16.4077L6.11698 16.3993C6.80032 15.6743 7.84198 15.7327 8.43365 16.5243L9.27532 17.6493" stroke="#001034" stroke-width="1.5" stroke-linecap="round" stroke-linejoin="round"/>
<path d="M15.6667 17.8333C17.1394 17.8333 18.3333 16.6394 18.3333 15.1667C18.3333 13.6939 17.1394 12.5 15.6667 12.5C14.1939 12.5 13 13.6939 13 15.1667C13 16.6394 14.1939 17.8333 15.6667 17.8333Z" stroke="#001034" stroke-width="1.5" stroke-linecap="round" stroke-linejoin="round"/>
<path d="M18.8333 18.3333L18 17.5" stroke="#001034" stroke-width="1.5" stroke-linecap="round" stroke-linejoin="round"/>
<path d="M7.16699 5.83398H13.8337" stroke="#292D32" stroke-width="1.5" stroke-linecap="round" stroke-linejoin="round"/>
<path d="M8 9.16602H13" stroke="#292D32" stroke-width="1.5" stroke-linecap="round" stroke-linejoin="round"/>
</svg>
