<svg viewBox="0 0 16 16" fill="none" xmlns="http://www.w3.org/2000/svg">
<path d="M7.66732 14.5007C3.90065 14.5007 0.833984 11.434 0.833984 7.66732C0.833984 3.90065 3.90065 0.833984 7.66732 0.833984C11.434 0.833984 14.5007 3.90065 14.5007 7.66732C14.5007 11.434 11.434 14.5007 7.66732 14.5007ZM7.66732 1.83398C4.44732 1.83398 1.83398 4.45398 1.83398 7.66732C1.83398 10.8807 4.44732 13.5007 7.66732 13.5007C10.8873 13.5007 13.5007 10.8807 13.5007 7.66732C13.5007 4.45398 10.8873 1.83398 7.66732 1.83398Z" fill="#A0A1A5"/>
<path d="M14.6673 15.1673C14.5407 15.1673 14.414 15.1207 14.314 15.0207L12.9807 13.6873C12.7873 13.494 12.7873 13.174 12.9807 12.9807C13.174 12.7873 13.494 12.7873 13.6873 12.9807L15.0207 14.314C15.214 14.5073 15.214 14.8273 15.0207 15.0207C14.9207 15.1207 14.794 15.1673 14.6673 15.1673Z" fill="#A0A1A5"/>
</svg>
