<svg viewBox="0 0 20 20" fill="none" xmlns="http://www.w3.org/2000/svg">
<path d="M8.74179 1.85781L4.58346 3.41615C3.62513 3.77448 2.8418 4.90781 2.8418 5.93281V12.1245C2.8418 13.1078 3.49181 14.3995 4.28347 14.9911L7.8668 17.6661C9.0418 18.5495 10.9751 18.5495 12.1501 17.6661L15.7335 14.9911C16.5251 14.3995 17.1751 13.1078 17.1751 12.1245V5.93281C17.1751 4.90781 16.3918 3.77448 15.4335 3.41615L11.2751 1.85781C10.5668 1.59948 9.43345 1.59948 8.74179 1.85781Z" stroke="#F28414" stroke-width="1.5" stroke-linecap="round" stroke-linejoin="round"/>
<path d="M9.99935 12.9167C11.8403 12.9167 13.3327 11.4243 13.3327 9.58333C13.3327 7.74238 11.8403 6.25 9.99935 6.25C8.1584 6.25 6.66602 7.74238 6.66602 9.58333C6.66602 11.4243 8.1584 12.9167 9.99935 12.9167Z" stroke="#F28414" stroke-width="1.5" stroke-miterlimit="10" stroke-linecap="round" stroke-linejoin="round"/>
<path d="M10.2077 8.54102V9.31602C10.2077 9.60768 10.0577 9.88268 9.79936 10.0327L9.16602 10.416" stroke="#F28414" stroke-width="1.5" stroke-miterlimit="10" stroke-linecap="round" stroke-linejoin="round"/>
</svg>
