<svg viewBox="0 0 20 20" fill="none" xmlns="http://www.w3.org/2000/svg">
<path d="M18.334 5.41797H13.334" stroke="#58A4B0" stroke-width="1.5" stroke-miterlimit="10" stroke-linecap="round" stroke-linejoin="round"/>
<path d="M4.99935 5.41797H1.66602" stroke="#58A4B0" stroke-width="1.5" stroke-miterlimit="10" stroke-linecap="round" stroke-linejoin="round"/>
<path d="M8.33268 8.33333C9.94351 8.33333 11.2493 7.0275 11.2493 5.41667C11.2493 3.80584 9.94351 2.5 8.33268 2.5C6.72185 2.5 5.41602 3.80584 5.41602 5.41667C5.41602 7.0275 6.72185 8.33333 8.33268 8.33333Z" stroke="#58A4B0" stroke-width="1.5" stroke-miterlimit="10" stroke-linecap="round" stroke-linejoin="round"/>
<path d="M18.3333 14.582H15" stroke="#58A4B0" stroke-width="1.5" stroke-miterlimit="10" stroke-linecap="round" stroke-linejoin="round"/>
<path d="M6.66602 14.582H1.66602" stroke="#58A4B0" stroke-width="1.5" stroke-miterlimit="10" stroke-linecap="round" stroke-linejoin="round"/>
<path d="M11.6667 17.5013C13.2775 17.5013 14.5833 16.1955 14.5833 14.5846C14.5833 12.9738 13.2775 11.668 11.6667 11.668C10.0558 11.668 8.75 12.9738 8.75 14.5846C8.75 16.1955 10.0558 17.5013 11.6667 17.5013Z" stroke="#58A4B0" stroke-width="1.5" stroke-miterlimit="10" stroke-linecap="round" stroke-linejoin="round"/>
</svg>
