<svg viewBox="0 0 16 16" fill="none" xmlns="http://www.w3.org/2000/svg">
<g clip-path="url(#clip0_12034_3648)">
<path d="M8 16C12.4183 16 16 12.4183 16 8C16 3.58172 12.4183 0 8 0C3.58172 0 0 3.58172 0 8C0 12.4183 3.58172 16 8 16Z" fill="#338AF3"/>
<path d="M12.522 8.08789H3.47852C3.47852 8.71223 4.0223 9.21833 4.64658 9.21833H4.60895C4.60895 9.84267 5.11505 10.3488 5.73939 10.3488C5.73939 10.9731 6.24548 11.4792 6.86983 11.4792H9.1307C9.75505 11.4792 10.2611 10.9731 10.2611 10.3488C10.8855 10.3488 11.3916 9.84267 11.3916 9.21833H11.354C11.9782 9.21833 12.522 8.71223 12.522 8.08789Z" fill="#FFDA44"/>
<path d="M11.13 6.60938C11.13 8.33825 9.72845 9.73981 7.99958 9.73981C6.27067 9.73981 4.86914 8.33825 4.86914 6.60938" fill="#338AF3"/>
<path d="M10.3916 6.60858L9.41453 7.06817L9.93481 8.01442L8.87388 7.81145L8.73944 8.8832L8.00047 8.09492L7.26147 8.8832L7.12706 7.81145L6.06612 8.01436L6.58637 7.06814L5.60938 6.60858L6.58641 6.14902L6.06612 5.2028L7.12703 5.40573L7.2615 4.33398L8.00047 5.12227L8.73947 4.33398L8.87388 5.40573L9.93484 5.2028L9.41456 6.14905L10.3916 6.60858Z" fill="#FFDA44"/>
</g>
<defs>
<clipPath id="clip0_12034_3648">
<rect width="16" height="16" fill="white"/>
</clipPath>
</defs>
</svg>
