<svg viewBox="0 0 512 512" fill="none" xmlns="http://www.w3.org/2000/svg">
<g clip-path="url(#clip0_271_9105)">
<path d="M256.001 512C397.385 512 512.001 397.384 512.001 256C512.001 213.037 501.401 172.554 482.699 137L255.7 256.3L375.001 29.302C339.447 10.6 298.964 0 256.001 0C114.617 0 0.000976562 114.616 0.000976562 256C0.000976562 326.693 28.655 390.693 74.981 437.02C121.308 483.347 185.308 512 256.001 512Z" fill="#0052B4"/>
<path d="M482.429 137.279C470.711 114.975 455.476 94.0342 436.722 75.2802C417.967 56.5262 397.029 41.2912 374.723 29.5742L74.682 437.319L482.429 137.279Z" fill="#F0F0F0"/>
<path d="M74.682 437.319L482.429 137.279C470.711 114.975 455.476 94.0338 436.722 75.2798L74.682 437.319Z" fill="#FF9811"/>
<path d="M222.309 150.122L191.045 164.828L207.694 195.108L173.744 188.613L169.442 222.909L145.794 197.684L122.146 222.909L117.846 188.613L83.8959 195.106L100.543 164.827L69.2789 150.122L100.544 135.415L83.8959 105.137L117.844 111.63L122.147 77.334L145.794 102.559L169.442 77.334L173.744 111.63L207.695 105.137L191.046 135.416L222.309 150.122Z" fill="#F0F0F0"/>
</g>
<defs>
<clipPath id="clip0_271_9105">
<rect width="512" height="512" fill="white" transform="translate(0.000976562)"/>
</clipPath>
</defs>
</svg>
