<svg viewBox="0 0 512 512" fill="none" xmlns="http://www.w3.org/2000/svg">
<g clip-path="url(#clip0_271_9097)">
<path d="M345.044 15.923C317.311 5.633 287.315 0 256.001 0C224.687 0 194.691 5.633 166.958 15.923L144.697 256L166.958 496.077C194.691 506.368 224.687 512 256.001 512C287.315 512 317.311 506.368 345.044 496.077L367.305 256L345.044 15.923Z" fill="#FFDA44"/>
<path d="M512.001 256C512.001 145.93 442.529 52.0938 345.044 15.9238V496.079C442.529 459.906 512.001 366.072 512.001 256Z" fill="#D80027"/>
<path d="M0.000976562 256C0.000976562 366.072 69.473 459.906 166.958 496.078V15.9238C69.473 52.0938 0.000976562 145.93 0.000976562 256Z" fill="#6DA544"/>
</g>
<defs>
<clipPath id="clip0_271_9097">
<rect width="512" height="512" fill="white" transform="translate(0.000976562)"/>
</clipPath>
</defs>
</svg>
