<svg viewBox="0 0 512 512" fill="none" xmlns="http://www.w3.org/2000/svg">
<g clip-path="url(#clip0_271_9110)">
<path d="M256.001 512C397.386 512 512.001 397.385 512.001 256C512.001 114.615 397.386 0 256.001 0C114.616 0 0.000976562 114.615 0.000976562 256C0.000976562 397.385 114.616 512 256.001 512Z" fill="#F0F0F0"/>
<path d="M509.807 222.608C502.745 168.622 478.495 116.456 437.02 74.9809C395.545 33.5059 343.378 9.25487 289.392 2.19287L289.393 222.608H509.807Z" fill="#0052B4"/>
<path d="M222.609 2.19287C168.623 9.25487 116.456 33.5049 74.9811 74.9799C33.5071 116.456 9.25609 168.623 2.19409 222.61L222.61 222.609L222.609 2.19287Z" fill="#0052B4"/>
<path d="M2.19409 289.392C9.25609 343.378 33.5071 395.546 74.9811 437.02C116.456 478.494 168.622 502.744 222.61 509.809L222.609 289.394L2.19409 289.392Z" fill="#0052B4"/>
<path d="M289.393 509.806C343.379 502.744 395.545 478.494 437.02 437.019C478.495 395.544 502.745 343.378 509.807 289.392H289.393V509.806Z" fill="#0052B4"/>
<path d="M343.39 162.438C343.39 159.034 346.157 156.267 349.562 156.267H362.786C383.69 156.267 400.697 139.261 400.697 118.358C400.697 97.4552 383.691 80.4482 362.786 80.4482H350.228C346.129 77.3692 340.63 75.4702 334.564 75.4702C321.911 75.4702 311.654 83.6752 311.654 93.7972C311.654 103.821 321.715 111.953 334.199 112.111L334.193 112.184H362.786C366.191 112.184 368.958 114.952 368.958 118.356C368.958 121.76 366.191 124.527 362.786 124.527H349.562C328.658 124.527 311.653 141.533 311.653 162.436C311.653 183.339 328.657 200.346 349.562 200.346H400.696V168.608H349.562C346.157 168.609 343.39 165.842 343.39 162.438Z" fill="#F0F0F0"/>
<path d="M143.043 162.438C143.043 159.034 145.81 156.267 149.215 156.267H162.439C183.343 156.267 200.35 139.261 200.35 118.358C200.35 97.4552 183.344 80.4482 162.439 80.4482H149.881C145.782 77.3692 140.283 75.4702 134.217 75.4702C121.564 75.4702 111.307 83.6752 111.307 93.7972C111.307 103.821 121.368 111.953 133.852 112.111L133.846 112.184H162.44C165.845 112.184 168.612 114.952 168.612 118.356C168.612 121.76 165.845 124.527 162.44 124.527H149.216C128.312 124.527 111.307 141.533 111.307 162.436C111.307 183.339 128.311 200.346 149.216 200.346H200.349V168.608H149.215C145.81 168.609 143.043 165.842 143.043 162.438Z" fill="#F0F0F0"/>
<path d="M343.39 398.62C343.39 395.216 346.157 392.449 349.562 392.449H362.786C383.69 392.449 400.697 375.443 400.697 354.54C400.697 333.637 383.691 316.63 362.786 316.63H350.228C346.129 313.551 340.63 311.652 334.564 311.652C321.91 311.652 311.653 319.858 311.653 329.979C311.653 340.003 321.714 348.135 334.198 348.293L334.192 348.366H362.785C366.19 348.366 368.957 351.134 368.957 354.538C368.957 357.942 366.19 360.709 362.785 360.709H349.561C328.657 360.709 311.652 377.715 311.652 398.618C311.652 419.521 328.656 436.528 349.561 436.528H400.696V404.791H349.562C346.157 404.792 343.39 402.023 343.39 398.62Z" fill="#F0F0F0"/>
<path d="M143.043 398.62C143.043 395.216 145.81 392.449 149.215 392.449H162.439C183.343 392.449 200.35 375.443 200.35 354.54C200.35 333.637 183.344 316.63 162.439 316.63H149.881C145.782 313.551 140.283 311.652 134.217 311.652C121.563 311.652 111.306 319.858 111.306 329.979C111.306 340.003 121.367 348.135 133.851 348.293L133.845 348.366H162.439C165.844 348.366 168.611 351.134 168.611 354.538C168.611 357.942 165.844 360.709 162.439 360.709H149.215C128.311 360.709 111.306 377.715 111.306 398.618C111.306 419.521 128.31 436.528 149.215 436.528H200.349V404.791H149.215C145.81 404.792 143.043 402.023 143.043 398.62Z" fill="#F0F0F0"/>
</g>
<defs>
<clipPath id="clip0_271_9110">
<rect width="512" height="512" fill="white" transform="translate(0.000976562)"/>
</clipPath>
</defs>
</svg>
