<svg viewBox="0 0 512 512" fill="none" xmlns="http://www.w3.org/2000/svg">
<g clip-path="url(#clip0_271_9122)">
<path d="M256.001 512C397.386 512 512.001 397.385 512.001 256C512.001 114.615 397.386 0 256.001 0C114.616 0 0.000976562 114.615 0.000976562 256C0.000976562 397.385 114.616 512 256.001 512Z" fill="#496E2D"/>
<path d="M256.001 295.751C213.375 295.751 177.765 265.793 169.028 225.788C167.686 231.938 166.958 238.315 166.958 244.869C166.958 294.048 206.823 333.912 256.001 333.912C305.179 333.912 345.044 294.047 345.044 244.869C345.044 238.315 344.316 231.938 342.974 225.787C334.237 265.794 298.627 295.751 256.001 295.751Z" fill="#FFDA44"/>
<path d="M256 178.087L264.288 203.596H291.111L269.412 219.361L277.7 244.87L256 229.104L234.301 244.87L242.59 219.361L220.891 203.596H247.712L256 178.087Z" fill="#FFDA44"/>
</g>
<defs>
<clipPath id="clip0_271_9122">
<rect width="512" height="512" fill="white" transform="translate(0.000976562)"/>
</clipPath>
</defs>
</svg>
