<svg viewBox="0 0 512 512" fill="none" xmlns="http://www.w3.org/2000/svg">
<g clip-path="url(#clip0_271_9127)">
<path d="M31.1279 133.565L256.001 155.826L480.874 133.565C437.455 53.989 353.036 0 256.001 0C158.966 0 74.5469 53.989 31.1279 133.565Z" fill="#D80027"/>
<path d="M31.128 378.435L256.001 400.696L480.874 378.435C500.718 342.064 512.001 300.35 512.001 256L256.001 233.739L0.000976562 256C0.000976562 300.35 11.284 342.064 31.128 378.435Z" fill="#FFDA44"/>
<path d="M31.128 133.565C11.284 169.936 0.000976562 211.65 0.000976562 256H512.001C512.001 211.65 500.718 169.936 480.874 133.565H256.001H31.128Z" fill="#0052B4"/>
<path d="M256.001 512C353.036 512 437.455 458.011 480.874 378.435H31.1279C74.5469 458.011 158.966 512 256.001 512Z" fill="#6DA544"/>
</g>
<defs>
<clipPath id="clip0_271_9127">
<rect width="512" height="512" fill="white" transform="translate(0.000976562)"/>
</clipPath>
</defs>
</svg>
