<svg viewBox="0 0 512 512" fill="none" xmlns="http://www.w3.org/2000/svg">
<g clip-path="url(#clip0_271_9093)">
<path d="M256.001 512C397.386 512 512.001 397.385 512.001 256C512.001 114.615 397.386 0 256.001 0C114.616 0 0.000976562 114.615 0.000976562 256C0.000976562 397.385 114.616 512 256.001 512Z" fill="#D80027"/>
<path d="M89.0439 133.565H422.957V378.435H89.0439V133.565Z" fill="#6DA544"/>
<path d="M297.228 328.348C257.272 328.348 224.88 295.956 224.88 256C224.88 216.044 257.272 183.652 297.228 183.652C309.686 183.652 321.409 186.802 331.643 192.348C315.588 176.647 293.633 166.956 269.402 166.956C220.226 166.956 180.359 206.822 180.359 255.999C180.359 305.176 220.226 345.042 269.402 345.042C293.633 345.042 315.589 335.351 331.643 319.65C321.409 325.198 309.686 328.348 297.228 328.348Z" fill="#F0F0F0"/>
</g>
<defs>
<clipPath id="clip0_271_9093">
<rect width="512" height="512" fill="white" transform="translate(0.000976562)"/>
</clipPath>
</defs>
</svg>
