<svg viewBox="0 0 512 512" fill="none" xmlns="http://www.w3.org/2000/svg">
<g clip-path="url(#clip0_271_9151)">
<path d="M256.001 512C397.386 512 512.001 397.385 512.001 256C512.001 114.615 397.386 0 256.001 0C114.616 0 0.000976562 114.615 0.000976562 256C0.000976562 397.385 114.616 512 256.001 512Z" fill="#F0F0F0"/>
<path d="M512.001 256C512.001 154.506 452.936 66.8099 367.305 25.4019V486.597C452.936 445.19 512.001 357.494 512.001 256Z" fill="#D80027"/>
<path d="M0.000976562 256C0.000976562 357.494 59.066 445.19 144.697 486.598V25.4019C59.066 66.8099 0.000976562 154.506 0.000976562 256Z" fill="#6DA544"/>
<path d="M189.218 256C189.218 292.883 219.118 322.783 256.001 322.783C292.884 322.783 322.784 292.883 322.784 256V233.739H189.218V256Z" fill="#6DA544"/>
<path d="M345.044 211.478H278.261C278.261 199.184 268.294 189.217 256 189.217C243.706 189.217 233.739 199.184 233.739 211.478H166.956C166.956 223.773 177.665 233.739 189.958 233.739H189.217C189.217 246.034 199.183 256 211.478 256C211.478 268.295 221.444 278.261 233.739 278.261H278.261C290.556 278.261 300.522 268.295 300.522 256C312.817 256 322.783 246.034 322.783 233.739H322.041C334.336 233.739 345.044 223.773 345.044 211.478Z" fill="#FF9811"/>
</g>
<defs>
<clipPath id="clip0_271_9151">
<rect width="512" height="512" fill="white" transform="translate(0.000976562)"/>
</clipPath>
</defs>
</svg>
